<?xml version="1.0" encoding="UTF-8"?>
<svg version="1.1" xmlns="http://www.w3.org/2000/svg" width="458" height="364">
<path d="M0 0 C151.14 0 302.28 0 458 0 C458 120.12 458 240.24 458 364 C306.86 364 155.72 364 0 364 C0 243.88 0 123.76 0 0 Z " fill="#FDFDFC" transform="translate(0,0)"/>
<path d="M0 0 C0 69.96 0 139.92 0 212 C-4.94739129 214.19884057 -9.80084023 216.34705183 -14.81787109 218.33081055 C-43.5669092 229.77764298 -68.47673375 245.82140636 -91 267 C-91.6084375 267.5671875 -92.216875 268.134375 -92.84375 268.71875 C-98.03333189 273.71961982 -102.6313206 279.27415716 -107 285 C-107 285.33 -107 285.66 -107 286 C-106.21882812 285.44054687 -105.43765625 284.88109375 -104.6328125 284.3046875 C-85.58039474 270.9838532 -64.55399846 260.60079437 -43 252 C-42.26587891 251.70689941 -41.53175781 251.41379883 -40.77539062 251.11181641 C-20.26337903 243.08390612 2.9432814 236 25 236 C25 173.63 25 111.26 25 47 C21.37 47.99 17.74 48.98 14 50 C12.35 50 10.7 50 9 50 C9 44.72 9 39.44 9 34 C12.26894066 33.03479747 15.53992725 32.0777463 18.8125 31.125 C20.17665039 30.72087891 20.17665039 30.72087891 21.56835938 30.30859375 C22.48037109 30.04433594 23.39238281 29.78007813 24.33203125 29.5078125 C25.15421143 29.26691895 25.9763916 29.02602539 26.82348633 28.77783203 C31.50067049 27.63253123 36.26230466 26.86139915 41 26 C41 99.92 41 173.84 41 250 C33.41 250.99 25.82 251.98 18 253 C13.38819473 253.86335316 8.86938668 254.7458948 4.3125 255.8125 C3.18223389 256.07256836 2.05196777 256.33263672 0.88745117 256.60058594 C-41.14039036 266.46289735 -81.5089646 285.84860822 -115.375 312.75 C-115.96200684 313.2126123 -116.54901367 313.67522461 -117.15380859 314.15185547 C-119.59521265 316.07840087 -122.01372505 318.01167754 -124.3828125 320.02734375 C-129.7694784 324.25120539 -134.51924311 324.70202446 -141.27734375 324.796875 C-150.15753553 322.89597351 -157.40097721 316.33662778 -164.4375 310.875 C-191.7467552 290.10996863 -222.60079028 273.42940693 -255.3828125 263.15625 C-259 262 -259 262 -261.37963867 261.01538086 C-264.08429962 259.96733419 -266.71948841 259.25789929 -269.54296875 258.59765625 C-270.60837891 258.34846436 -271.67378906 258.09927246 -272.77148438 257.8425293 C-273.89876953 257.58511963 -275.02605469 257.32770996 -276.1875 257.0625 C-277.34701172 256.79671143 -278.50652344 256.53092285 -279.70117188 256.25708008 C-292.44364492 253.38261933 -304.99332096 251.3006679 -318 250 C-318 176.41 -318 102.82 -318 27 C-306.73964785 28.12603521 -306.73964785 28.12603521 -302.46484375 29.15625 C-301.55412109 29.37410156 -300.64339844 29.59195313 -299.70507812 29.81640625 C-298.79177734 30.04199219 -297.87847656 30.26757812 -296.9375 30.5 C-295.5153418 30.83837891 -295.5153418 30.83837891 -294.06445312 31.18359375 C-287.13822286 32.86177714 -287.13822286 32.86177714 -286 34 C-285.92674832 36.86267567 -285.90761795 39.700719 -285.9375 42.5625 C-285.94201172 43.36880859 -285.94652344 44.17511719 -285.95117188 45.00585938 C-285.96299482 47.00393756 -285.98093086 49.00197783 -286 51 C-291.28 49.68 -296.56 48.36 -302 47 C-302 109.37 -302 171.74 -302 236 C-299.36 236 -296.72 236 -294 236 C-250.65847793 240.99575176 -206.99849354 261.00100431 -171 285 C-178.15733402 275.92784675 -185.14618703 267.44961893 -194 260 C-194.94746094 259.1646875 -195.89492187 258.329375 -196.87109375 257.46875 C-204.78359485 250.53078014 -213.05059482 244.5299127 -222 239 C-222.75748535 238.52949219 -223.5149707 238.05898437 -224.29541016 237.57421875 C-240.99427441 227.32296213 -258.68577524 219.86783428 -277 213 C-277 143.04 -277 73.08 -277 1 C-227.67210449 5.93278955 -177.25546436 29.854886 -145 68 C-140 74.25545852 -140 74.25545852 -140 77 C-139.34 77 -138.68 77 -138 77 C-137.73445312 76.42765625 -137.46890625 75.8553125 -137.1953125 75.265625 C-118.56932739 39.96147022 -72.06822027 19.16149068 -36.11865234 7.98608398 C-27.18080193 5.34418027 -18.0614753 3.392772 -8.94506836 1.47729492 C-2.92480818 0 -2.92480818 0 0 0 Z " fill="#C2A983" transform="translate(366,5)"/>
<path d="M0 0 C31.35923766 3.69303247 64.96551429 20.34679648 87.83984375 41.9609375 C89.85157275 43.85989326 91.9303668 45.61421681 94.0625 47.375 C99.01443523 51.69795959 103.04593664 56.76917153 107 62 C107.5725052 62.60105246 108.1450104 63.20210491 108.73486423 63.82137108 C115.82835435 72.11589964 114.94287015 80.80404722 114.79467773 91.12744141 C114.79270087 93.05992562 114.79381613 94.99241508 114.79777527 96.92489624 C114.79977656 102.14774377 114.75873889 107.36945671 114.70975757 112.59204149 C114.66587838 118.05856543 114.66187699 123.52511789 114.65357971 128.99179077 C114.63185808 139.33316996 114.57446235 149.67402864 114.50413328 160.01517904 C114.42578175 171.79262223 114.3873761 183.57009081 114.35226524 195.34772992 C114.27917689 219.56544139 114.15612078 243.78269148 114 268 C110.63215113 264.72726311 107.9621758 261.23582176 105.3125 257.375 C101.54768644 251.99469592 97.56154124 247.03496741 93.07421875 242.2265625 C91.18675832 240.20047504 89.40379289 238.12103095 87.625 236 C66.15187307 211.61196896 33.73322943 193.22479646 3.5703125 181.98828125 C1 181 1 181 0 180 C-0.0976134 177.67232986 -0.12997765 175.37437981 -0.12025452 173.04624939 C-0.12110894 172.31035554 -0.12196337 171.57446169 -0.12284368 170.81626803 C-0.12450067 168.33183354 -0.11897356 165.84746545 -0.11352539 163.36303711 C-0.11324354 161.58951316 -0.11340121 159.81598909 -0.1139679 158.04246521 C-0.11425595 153.21208983 -0.1083579 148.38173906 -0.10139394 143.55136943 C-0.09516176 138.50914683 -0.09455671 133.46692373 -0.09336853 128.42469788 C-0.09025481 118.86949773 -0.08204088 109.31430897 -0.07201904 99.75911385 C-0.06085916 88.88384567 -0.05534777 78.00857695 -0.05032361 67.13330448 C-0.0398583 44.75553 -0.02225807 22.37776564 0 0 Z " fill="#FEFEFD" transform="translate(105,26)"/>
<path d="M0 0 C0 59.4 0 118.8 0 180 C-4.70742278 182.35371139 -9.27002871 184.58434178 -14.08691406 186.63623047 C-30.47096103 193.65215306 -45.85602329 202.14309181 -60 213 C-60.57411621 213.43280273 -61.14823242 213.86560547 -61.73974609 214.31152344 C-80.68742849 228.6071295 -96.19384473 244.81677175 -109.75415039 264.31103516 C-111 266 -111 266 -113 268 C-113.14022226 242.60029359 -113.24599681 217.20064527 -113.31087303 191.80062962 C-113.34179819 180.00668453 -113.38395346 168.21298008 -113.45263672 156.41918945 C-113.51247932 146.1385432 -113.55115888 135.85807125 -113.56453097 125.57725567 C-113.57234642 120.13460806 -113.5906871 114.69245904 -113.63438034 109.24997139 C-113.67519783 104.12401313 -113.68765045 98.99875739 -113.67864609 93.87265205 C-113.68029263 91.99453917 -113.69217302 90.11640206 -113.71523285 88.23843002 C-113.92445167 70.31614206 -113.92445167 70.31614206 -107 63 C-106.3915625 62.15050781 -105.783125 61.30101562 -105.15625 60.42578125 C-96.2951449 49.11951272 -86.06611453 38.84217747 -74 31 C-73.41524902 30.61392578 -72.83049805 30.22785156 -72.22802734 29.83007812 C-53.72528486 17.66259115 -33.79932746 8.34896287 -12.5625 2 C-11.87099854 1.79221924 -11.17949707 1.58443848 -10.46704102 1.37036133 C-6.73488439 0.30979947 -3.96085672 0 0 0 Z " fill="#FEFEFE" transform="translate(349,26)"/>
<path d="M0 0 C10.23 0 20.46 0 31 0 C31 76.89 31 153.78 31 233 C17.14 233.33 3.28 233.66 -11 234 C-31.38283707 235.65384949 -31.38283707 235.65384949 -51.46875 239.25390625 C-54.69585417 239.9357391 -57.89438988 240.44802014 -61.15625 240.9296875 C-109.48649846 247.60980044 -109.48649846 247.60980044 -150.51953125 269.796875 C-150.94621094 270.44140625 -151.37289063 271.0859375 -151.8125 271.75 C-158.84387071 281.50088305 -168.34730723 287.23598615 -180 290 C-194.36814553 291.53465971 -206.54329081 289.1737452 -218 280 C-222.04596326 276.32958149 -225.92892726 272.54066583 -229 268 C-229 267.34 -229 266.68 -229 266 C-230.08498779 265.80881592 -230.08498779 265.80881592 -231.19189453 265.61376953 C-233.92004702 265.01747538 -236.33353318 264.19976671 -238.9296875 263.1796875 C-239.87706787 262.81286865 -240.82444824 262.4460498 -241.80053711 262.06811523 C-243.32239624 261.47752319 -243.32239624 261.47752319 -244.875 260.875 C-298.3752545 240.56400908 -350.9629858 234.92497509 -408 232 C-408 155.77 -408 79.54 -408 1 C-398.1 1 -388.2 1 -378 1 C-378 6.28 -378 11.56 -378 17 C-382.62 17 -387.24 17 -392 17 C-392 82.67 -392 148.34 -392 216 C-388.04 216 -384.08 216 -380 216 C-376.23771151 216.20250278 -372.50251483 216.43926829 -368.75 216.75 C-367.16638672 216.88088013 -367.16638672 216.88088013 -365.55078125 217.0144043 C-343.7077817 218.91619725 -322.09312817 221.72663211 -300.66308594 226.42382812 C-298.27203828 226.94114317 -295.87789283 227.42390876 -293.4765625 227.890625 C-272.48456384 232.07987579 -251.95471391 239.17689734 -232.13134766 247.16699219 C-230.20601804 247.91948069 -228.25051005 248.59360987 -226.29296875 249.2578125 C-218.35499356 252.05714777 -215.2885192 255.91105433 -211 263 C-206.08476897 268.97798369 -200.03965852 272.45703515 -192.3671875 273.48828125 C-183.06148428 273.81727076 -175.93033088 272.54961035 -168.9765625 266.1328125 C-166.15184166 263.06971859 -164.19397823 260.47278817 -162.59765625 256.58203125 C-159.44206545 251.00089662 -153.02108249 249.62183354 -147.3125 247.5625 C-146.0478674 247.08947731 -144.78371304 246.61517426 -143.52001953 246.13964844 C-108.37572594 233.04192952 -72.20785233 223.78836852 -35 219 C-34.23155762 218.90090332 -33.46311523 218.80180664 -32.67138672 218.69970703 C-17.10726843 216.76682281 -1.74147853 216.5428096 14 216 C14 150.33 14 84.66 14 17 C9.38 17 4.76 17 0 17 C0 11.39 0 5.78 0 0 Z " fill="#174D6C" transform="translate(416,62)"/>
<path d="M0 0 C5.28 0 10.56 0 16 0 C16 75.9 16 151.8 16 230 C2 230 2 230 0 229 C0 153.43 0 77.86 0 0 Z " fill="#114B6B" transform="translate(219,99)"/>
<path d="M0 0 C9.9 0 19.8 0 30 0 C30 5.28 30 10.56 30 16 C25.38 16 20.76 16 16 16 C16 82 16 148 16 216 C19.63 216 23.26 216 27 216 C27 216.33 27 216.66 27 217 C22.71 217 18.42 217 14 217 C13.97667428 190.67974346 13.95902244 164.35948846 13.94818783 138.03922367 C13.94302417 125.81919574 13.93598016 113.59917421 13.92456055 101.37915039 C13.91461583 90.7323487 13.90814708 80.08555165 13.90591151 69.43874544 C13.90460404 63.79759328 13.90151591 58.15645439 13.89426994 52.51530647 C13.88751307 47.21226576 13.88538236 41.90924387 13.88689232 36.60619926 C13.88661584 34.65381137 13.88460876 32.70142288 13.88079453 30.7490387 C13.87586246 28.09565409 13.8769999 25.44234176 13.87974548 22.78895569 C13.87683264 22.00589697 13.8739198 21.22283826 13.87091869 20.41605049 C13.88587879 15.11412121 13.88587879 15.11412121 15 14 C17.35313555 13.92728259 19.70833668 13.91629132 22.0625 13.9375 C23.35285156 13.94652344 24.64320312 13.95554687 25.97265625 13.96484375 C26.97167969 13.97644531 27.97070312 13.98804687 29 14 C29 9.71 29 5.42 29 1 C19.76 1 10.52 1 1 1 C1 76.57 1 152.14 1 230 C11.23 230 21.46 230 32 230 C32 230.33 32 230.66 32 231 C21.44 231 10.88 231 0 231 C0 154.77 0 78.54 0 0 Z " fill="#17374C" transform="translate(8,63)"/>
<path d="M0 0 C5.28 0 10.56 0 16 0 C16 75.57 16 151.14 16 229 C15.67 229 15.34 229 15 229 C15 154.09 15 79.18 15 2 C10.71 2 6.42 2 2 2 C2.33 76.91 2.66 151.82 3 229 C2.01 229 1.02 229 0 229 C0 153.43 0 77.86 0 0 Z " fill="#183F53" transform="translate(219,99)"/>
<path d="M0 0 C2 1 2 1 3 2 C3.09925773 3.95824698 3.12799414 5.92009897 3.12939453 7.88085938 C3.13412277 9.7678656 3.13412277 9.7678656 3.13894653 11.69299316 C3.13715675 13.07657913 3.1351058 14.46016478 3.1328125 15.84375 C3.13348559 17.25240089 3.13445565 18.66105166 3.13571167 20.06970215 C3.13718842 23.02548323 3.13503483 25.98123414 3.13037109 28.93701172 C3.12467381 32.73374584 3.12795293 36.53040928 3.13394356 40.32714081 C3.13754979 43.23696428 3.1364103 46.14677088 3.13381577 49.05659485 C3.13314667 50.456894 3.13397432 51.85719467 3.13629532 53.25749207 C3.13882283 55.21137464 3.13429033 57.16526255 3.12939453 59.11914062 C3.12859894 60.23309204 3.12780334 61.34704346 3.12698364 62.49475098 C3 65 3 65 2 66 C1.89974305 68.36761575 1.86381065 70.70607073 1.87060547 73.07421875 C1.86885315 73.81402985 1.86710083 74.55384094 1.86529541 75.31607056 C1.8608769 77.77323723 1.86381487 80.23033253 1.8671875 82.6875 C1.86651446 84.38761407 1.86554443 86.08772805 1.86428833 87.7878418 C1.86281136 91.35564081 1.86496589 94.92341483 1.86962891 98.49121094 C1.8753262 103.07488494 1.87204719 107.65850039 1.86605644 112.24217224 C1.86245081 115.75419561 1.86358943 119.26620498 1.86618423 122.77822876 C1.8668535 124.46880093 1.86602511 126.15937436 1.86370468 127.84994507 C1.86117811 130.20859157 1.86501879 132.56714195 1.87060547 134.92578125 C1.86858124 135.63127106 1.86655701 136.33676086 1.86447144 137.06362915 C1.60184434 140.31192043 1.60184434 140.31192043 3 143 C3.12492389 145.43299787 3.18601507 147.83904923 3.20532227 150.27368164 C3.21522186 151.03460617 3.22512146 151.7955307 3.23532104 152.57951355 C3.26702624 155.1063623 3.2917289 157.63322988 3.31640625 160.16015625 C3.33696801 161.90751141 3.35796426 163.65486151 3.37937927 165.40220642 C3.43468041 170.01026318 3.48405408 174.61836541 3.53222656 179.22650146 C3.58238303 183.92513089 3.63809958 188.62369394 3.69335938 193.32226562 C3.80103924 202.54812044 3.90246223 211.77403278 4 221 C5.98 221.33 7.96 221.66 10 222 C10 222.33 10 222.66 10 223 C6.7 223 3.4 223 0 223 C0 149.41 0 75.82 0 0 Z " fill="#BAA17E" transform="translate(48,32)"/>
<path d="M0 0 C0.99 0.495 0.99 0.495 2 1 C0.68 2.32 -0.64 3.64 -2 5 C-1.505 5.99 -1.505 5.99 -1 7 C-1.99580078 7.27650391 -1.99580078 7.27650391 -3.01171875 7.55859375 C-8.43708496 9.27754893 -8.43708496 9.27754893 -12.53125 13.0234375 C-13.31130055 14.56772676 -14.07005627 16.12293279 -14.80859375 17.6875 C-17.86449686 23.61895783 -23.11747398 27.92285186 -29.29296875 30.33203125 C-38.89694501 32.70184357 -47.81022806 31.79410668 -56.40234375 26.9140625 C-61.45097706 23.1940169 -64.62177991 18.49139785 -67.625 13.0625 C-69.37676338 10.43485494 -71.02503275 9.88444972 -74 9 C-74 7.35 -74 5.7 -74 4 C-67.96227987 7.83793063 -62.27339913 12.01376009 -56.69458008 16.48388672 C-49.68235117 22.01182261 -44.39352127 23.76981238 -35.50390625 23.51953125 C-29.6550206 22.65230517 -26.41790478 19.74429567 -22 16 C-19.84277525 14.31835483 -17.66859031 12.6604128 -15.49145508 11.00463867 C-13.98079799 9.85415732 -12.47521363 8.69697775 -10.9753418 7.5324707 C-3.46783486 1.71789232 -3.46783486 1.71789232 0 0 Z " fill="#F0F4F1" transform="translate(267,305)"/>
<path d="M0 0 C2.31 0.33 4.62 0.66 7 1 C7 1.33 7 1.66 7 2 C5.35 2.33 3.7 2.66 2 3 C1.67 64.05 1.34 125.1 1 188 C3.31 188 5.62 188 8 188 C8 188.33 8 188.66 8 189 C5.36 189 2.72 189 0 189 C0 126.63 0 64.26 0 0 Z " fill="#FEFAEB" transform="translate(64,52)"/>
<path d="M0 0 C0 35.97 0 71.94 0 109 C-0.33 109 -0.66 109 -1 109 C-1.495 56.035 -1.495 56.035 -2 2 C-2.33 2.33 -2.66 2.66 -3 3 C-5.67058851 3.14115161 -8.32432238 3.04247107 -11 3 C-10.67 2.34 -10.34 1.68 -10 1 C-6.56187949 0.23597322 -3.53471921 0 0 0 Z " fill="#BAA280" transform="translate(406,32)"/>
<path d="M0 0 C0.99 0.33 1.98 0.66 3 1 C2.51700439 1.35054443 2.03400879 1.70108887 1.53637695 2.06225586 C-0.74698409 4.94212819 -0.4706204 7.36702256 -0.58203125 11.00390625 C-0.6047258 11.68299545 -0.62742035 12.36208466 -0.65080261 13.06175232 C-0.69532852 14.49466288 -0.7327067 15.927811 -0.76342773 17.36108398 C-0.8124167 19.55876302 -0.88789248 21.75438508 -0.96679688 23.95117188 C-1.14800927 29.47639205 -1.14800927 29.47639205 -1 35 C-0.34 35.66 0.32 36.32 1 37 C-0.65 37.66 -2.3 38.32 -4 39 C-4 28.11 -4 17.22 -4 6 C-3.34 6 -2.68 6 -2 6 C-1.7834375 5.071875 -1.7834375 5.071875 -1.5625 4.125 C-1 2 -1 2 0 0 Z " fill="#ABA28D" transform="translate(239,289)"/>
<path d="M0 0 C0.66 0.33 1.32 0.66 2 1 C-3.17747072 6.8629042 -8.47745103 12.52409507 -14.046875 18.015625 C-16.21285284 20.21625849 -18.16013501 22.52018197 -20 25 C-20.66 24.67 -21.32 24.34 -22 24 C-14.9839082 15.63373246 -7.88356529 7.569618 0 0 Z " fill="#C0AC8D" transform="translate(270,253)"/>
<path d="M0 0 C8.51372785 -0.31274919 16.6030674 0.62707087 25 2 C23.68085371 4.63829259 22.76142665 4.98263229 20 6 C17.66796188 6.0777346 15.33160941 6.08967728 13 6 C13.66 5.67 14.32 5.34 15 5 C14.67 4.34 14.34 3.68 14 3 C11.66255706 2.53193355 9.30260921 2.17330206 6.9375 1.875 C5.64714844 1.70742188 4.35679688 1.53984375 3.02734375 1.3671875 C2.02832031 1.24601562 1.02929688 1.12484375 0 1 C0 0.67 0 0.34 0 0 Z " fill="#1A415A" transform="translate(68,282)"/>
<path d="M0 0 C5.60461531 0.42089996 10.72086547 0.91613111 16 3 C16 3.66 16 4.32 16 5 C11.71 5 7.42 5 3 5 C3.66 4.34 4.32 3.68 5 3 C2.525 2.01 2.525 2.01 0 1 C0 0.67 0 0.34 0 0 Z " fill="#133C58" transform="translate(113,289)"/>
<path d="M0 0 C0 0.66 0 1.32 0 2 C-7.59 1.34 -15.18 0.68 -23 0 C-23 -0.33 -23 -0.66 -23 -1 C-5.92 -2.96 -5.92 -2.96 0 0 Z " fill="#31546B" transform="translate(81,297)"/>
<path d="M0 0 C3.48670834 1.1094072 6.77484237 2.26337666 10 4 C10 4.66 10 5.32 10 6 C8.02 6.33 6.04 6.66 4 7 C3.34 6.01 2.68 5.02 2 4 C1.01 3.67 0.02 3.34 -1 3 C-0.67 2.01 -0.34 1.02 0 0 Z " fill="#16425C" transform="translate(209,331)"/>
<path d="M0 0 C0 1.32 0 2.64 0 4 C-4.54805635 4.17835515 -7.8794254 3.99785435 -12 2 C-12 1.67 -12 1.34 -12 1 C-7.9472484 0.01751476 -4.16138263 -0.08159574 0 0 Z " fill="#1B445F" transform="translate(134,305)"/>
<path d="M0 0 C-3.85623679 3.97674419 -3.85623679 3.97674419 -7.11328125 4.04296875 C-9.08863015 3.7798228 -11.04718291 3.39718314 -13 3 C-12.67 2.34 -12.34 1.68 -12 1 C-7.96960118 0.06269795 -4.12580711 -0.0982335 0 0 Z " fill="#194861" transform="translate(352,287)"/>
<path d="M0 0 C2.97 0.495 2.97 0.495 6 1 C5.67 2.32 5.34 3.64 5 5 C2.69 5 0.38 5 -2 5 C-1.34 3.35 -0.68 1.7 0 0 Z " fill="#1C536F" transform="translate(349,286)"/>
<path d="M0 0 C3.96 0 7.92 0 12 0 C11.67 0.66 11.34 1.32 11 2 C5.40508021 3.17312834 5.40508021 3.17312834 3 3 C2.01 2.01 1.02 1.02 0 0 Z " fill="#164461" transform="translate(206,346)"/>
<path d="M0 0 C4.455 2.97 4.455 2.97 9 6 C8.01 6.66 7.02 7.32 6 8 C4.02 7.01 2.04 6.02 0 5 C0 3.35 0 1.7 0 0 Z " fill="#E8E9E4" transform="translate(193,309)"/>
<path d="M0 0 C3.63 0.33 7.26 0.66 11 1 C11 1.66 11 2.32 11 3 C11.66 3 12.32 3 13 3 C13 3.66 13 4.32 13 5 C11.39402675 4.54803755 9.79027492 4.08817673 8.1875 3.625 C6.84751953 3.24214844 6.84751953 3.24214844 5.48046875 2.8515625 C3 2 3 2 0 0 Z " fill="#315369" transform="translate(158,317)"/>
<path d="M0 0 C4.29 0 8.58 0 13 0 C9 3 9 3 6.89453125 3.14453125 C4.9179679 2.82931946 2.95757875 2.41718891 1 2 C0.67 1.34 0.34 0.68 0 0 Z " fill="#225774" transform="translate(376,295)"/>
<path d="M0 0 C0.33 1.32 0.66 2.64 1 4 C-1.89675481 6.41396234 -4.59787701 8.38617243 -8 10 C-7.04367001 8.70684939 -6.08486149 7.41553147 -5.125 6.125 C-4.59132813 5.40570313 -4.05765625 4.68640625 -3.5078125 3.9453125 C-2 2 -2 2 0 0 Z " fill="#F3E9D5" transform="translate(264,283)"/>
<path d="M0 0 C3.4117126 0.37083833 6.68901795 1.10858176 10 2 C10 2.66 10 3.32 10 4 C4.06 3.01 4.06 3.01 -2 2 C-1.34 1.34 -0.68 0.68 0 0 Z " fill="#33566D" transform="translate(108,302)"/>
<path d="M0 0 C0 0.99 0 1.98 0 3 C-2.31 3 -4.62 3 -7 3 C-7.33 2.34 -7.66 1.68 -8 1 C-5.07175348 0.02391783 -3.04386724 -0.08226668 0 0 Z " fill="#265771" transform="translate(317,295)"/>
<path d="M0 0 C2.97 0.495 2.97 0.495 6 1 C6 1.99 6 2.98 6 4 C4.35 4 2.7 4 1 4 C0.67 2.68 0.34 1.36 0 0 Z " fill="#124361" transform="translate(150,311)"/>
<path d="M0 0 C2.31 0.33 4.62 0.66 7 1 C7.33 1.99 7.66 2.98 8 4 C5.6875 4.25 5.6875 4.25 3 4 C1.1875 2 1.1875 2 0 0 Z " fill="#183D54" transform="translate(161,302)"/>
<path d="M0 0 C-0.33 0.99 -0.66 1.98 -1 3 C-4.3 2.67 -7.6 2.34 -11 2 C-11 1.67 -11 1.34 -11 1 C-7.26513121 0.4254048 -3.78706732 0 0 0 Z " fill="#366076" transform="translate(365,284)"/>
<path d="M0 0 C-3.96 1.98 -3.96 1.98 -8 4 C-8 3.01 -8 2.02 -8 1 C-4.59449725 -1.06762667 -4.18836538 -1.04709135 0 0 Z " fill="#C0AC8F" transform="translate(341,227)"/>
</svg>
